<mxfile host="app.diagrams.net" modified="2022-10-24T11:10:22.406Z" agent="5.0 (Windows NT 10.0; Win64; x64) AppleWebKit/537.36 (KHTML, like Gecko) Chrome/106.0.0.0 Safari/537.36" etag="X4O05UYo25-d3nXVCM38" version="20.5.1" type="github">
  <diagram id="E-iEeLtAQqhnF8Df2W0B" name="Página-1">
    <mxGraphModel dx="1133" dy="867" grid="1" gridSize="10" guides="1" tooltips="1" connect="1" arrows="1" fold="1" page="1" pageScale="1" pageWidth="827" pageHeight="1169" math="0" shadow="0">
      <root>
        <mxCell id="0" />
        <mxCell id="1" parent="0" />
        <mxCell id="phABMBKXyKqPq_wbPe4x-16" value="«interface»&#xa;IDocument" style="swimlane;fontStyle=0;childLayout=stackLayout;horizontal=1;startSize=40;fillColor=none;horizontalStack=0;resizeParent=1;resizeParentMax=0;resizeLast=0;collapsible=1;marginBottom=0;" parent="1" vertex="1">
          <mxGeometry x="240" width="160" height="148" as="geometry" />
        </mxCell>
        <mxCell id="phABMBKXyKqPq_wbPe4x-17" value="+ Data: string" style="text;strokeColor=none;fillColor=none;align=left;verticalAlign=top;spacingLeft=4;spacingRight=4;overflow=hidden;rotatable=0;points=[[0,0.5],[1,0.5]];portConstraint=eastwest;" parent="phABMBKXyKqPq_wbPe4x-16" vertex="1">
          <mxGeometry y="40" width="160" height="26" as="geometry" />
        </mxCell>
        <mxCell id="phABMBKXyKqPq_wbPe4x-18" value="+ Required: bool" style="text;strokeColor=none;fillColor=none;align=left;verticalAlign=top;spacingLeft=4;spacingRight=4;overflow=hidden;rotatable=0;points=[[0,0.5],[1,0.5]];portConstraint=eastwest;" parent="phABMBKXyKqPq_wbPe4x-16" vertex="1">
          <mxGeometry y="66" width="160" height="22" as="geometry" />
        </mxCell>
        <mxCell id="-Bdz_eQ71Ck8odImY1UB-52" value="+ InsertDate: Date" style="text;strokeColor=none;fillColor=none;align=left;verticalAlign=top;spacingLeft=4;spacingRight=4;overflow=hidden;rotatable=0;points=[[0,0.5],[1,0.5]];portConstraint=eastwest;" vertex="1" parent="phABMBKXyKqPq_wbPe4x-16">
          <mxGeometry y="88" width="160" height="26" as="geometry" />
        </mxCell>
        <mxCell id="phABMBKXyKqPq_wbPe4x-36" value="" style="line;strokeWidth=1;fillColor=none;align=left;verticalAlign=middle;spacingTop=-1;spacingLeft=3;spacingRight=3;rotatable=0;labelPosition=right;points=[];portConstraint=eastwest;strokeColor=inherit;" parent="phABMBKXyKqPq_wbPe4x-16" vertex="1">
          <mxGeometry y="114" width="160" height="8" as="geometry" />
        </mxCell>
        <mxCell id="phABMBKXyKqPq_wbPe4x-37" value="Validate()" style="text;strokeColor=none;fillColor=none;align=left;verticalAlign=top;spacingLeft=4;spacingRight=4;overflow=hidden;rotatable=0;points=[[0,0.5],[1,0.5]];portConstraint=eastwest;" parent="phABMBKXyKqPq_wbPe4x-16" vertex="1">
          <mxGeometry y="122" width="160" height="26" as="geometry" />
        </mxCell>
        <mxCell id="phABMBKXyKqPq_wbPe4x-38" value="RG" style="swimlane;fontStyle=0;childLayout=stackLayout;horizontal=1;startSize=30;fillColor=none;horizontalStack=0;resizeParent=1;resizeParentMax=0;resizeLast=0;collapsible=1;marginBottom=0;" parent="1" vertex="1">
          <mxGeometry x="140" y="240" width="140" height="142" as="geometry" />
        </mxCell>
        <mxCell id="phABMBKXyKqPq_wbPe4x-39" value="+ Data: string" style="text;strokeColor=none;fillColor=none;align=left;verticalAlign=top;spacingLeft=4;spacingRight=4;overflow=hidden;rotatable=0;points=[[0,0.5],[1,0.5]];portConstraint=eastwest;" parent="phABMBKXyKqPq_wbPe4x-38" vertex="1">
          <mxGeometry y="30" width="140" height="26" as="geometry" />
        </mxCell>
        <mxCell id="phABMBKXyKqPq_wbPe4x-40" value="+ Required: bool" style="text;strokeColor=none;fillColor=none;align=left;verticalAlign=top;spacingLeft=4;spacingRight=4;overflow=hidden;rotatable=0;points=[[0,0.5],[1,0.5]];portConstraint=eastwest;" parent="phABMBKXyKqPq_wbPe4x-38" vertex="1">
          <mxGeometry y="56" width="140" height="26" as="geometry" />
        </mxCell>
        <mxCell id="-Bdz_eQ71Ck8odImY1UB-54" value="+ InsertDate: Date" style="text;strokeColor=none;fillColor=none;align=left;verticalAlign=top;spacingLeft=4;spacingRight=4;overflow=hidden;rotatable=0;points=[[0,0.5],[1,0.5]];portConstraint=eastwest;" vertex="1" parent="phABMBKXyKqPq_wbPe4x-38">
          <mxGeometry y="82" width="140" height="26" as="geometry" />
        </mxCell>
        <mxCell id="phABMBKXyKqPq_wbPe4x-41" value="" style="line;strokeWidth=1;fillColor=none;align=left;verticalAlign=middle;spacingTop=-1;spacingLeft=3;spacingRight=3;rotatable=0;labelPosition=right;points=[];portConstraint=eastwest;strokeColor=inherit;" parent="phABMBKXyKqPq_wbPe4x-38" vertex="1">
          <mxGeometry y="108" width="140" height="8" as="geometry" />
        </mxCell>
        <mxCell id="phABMBKXyKqPq_wbPe4x-42" value="Validate()" style="text;strokeColor=none;fillColor=none;align=left;verticalAlign=top;spacingLeft=4;spacingRight=4;overflow=hidden;rotatable=0;points=[[0,0.5],[1,0.5]];portConstraint=eastwest;" parent="phABMBKXyKqPq_wbPe4x-38" vertex="1">
          <mxGeometry y="116" width="140" height="26" as="geometry" />
        </mxCell>
        <mxCell id="phABMBKXyKqPq_wbPe4x-44" value="CPF" style="swimlane;fontStyle=0;childLayout=stackLayout;horizontal=1;startSize=30;fillColor=none;horizontalStack=0;resizeParent=1;resizeParentMax=0;resizeLast=0;collapsible=1;marginBottom=0;" parent="1" vertex="1">
          <mxGeometry x="360" y="240" width="140" height="142" as="geometry" />
        </mxCell>
        <mxCell id="phABMBKXyKqPq_wbPe4x-45" value="+ Data: string" style="text;strokeColor=none;fillColor=none;align=left;verticalAlign=top;spacingLeft=4;spacingRight=4;overflow=hidden;rotatable=0;points=[[0,0.5],[1,0.5]];portConstraint=eastwest;" parent="phABMBKXyKqPq_wbPe4x-44" vertex="1">
          <mxGeometry y="30" width="140" height="26" as="geometry" />
        </mxCell>
        <mxCell id="phABMBKXyKqPq_wbPe4x-46" value="+ Required: bool" style="text;strokeColor=none;fillColor=none;align=left;verticalAlign=top;spacingLeft=4;spacingRight=4;overflow=hidden;rotatable=0;points=[[0,0.5],[1,0.5]];portConstraint=eastwest;" parent="phABMBKXyKqPq_wbPe4x-44" vertex="1">
          <mxGeometry y="56" width="140" height="26" as="geometry" />
        </mxCell>
        <mxCell id="-Bdz_eQ71Ck8odImY1UB-53" value="+ InsertDate: Date" style="text;strokeColor=none;fillColor=none;align=left;verticalAlign=top;spacingLeft=4;spacingRight=4;overflow=hidden;rotatable=0;points=[[0,0.5],[1,0.5]];portConstraint=eastwest;" vertex="1" parent="phABMBKXyKqPq_wbPe4x-44">
          <mxGeometry y="82" width="140" height="26" as="geometry" />
        </mxCell>
        <mxCell id="phABMBKXyKqPq_wbPe4x-47" value="" style="line;strokeWidth=1;fillColor=none;align=left;verticalAlign=middle;spacingTop=-1;spacingLeft=3;spacingRight=3;rotatable=0;labelPosition=right;points=[];portConstraint=eastwest;strokeColor=inherit;" parent="phABMBKXyKqPq_wbPe4x-44" vertex="1">
          <mxGeometry y="108" width="140" height="8" as="geometry" />
        </mxCell>
        <mxCell id="phABMBKXyKqPq_wbPe4x-48" value="Validate()" style="text;strokeColor=none;fillColor=none;align=left;verticalAlign=top;spacingLeft=4;spacingRight=4;overflow=hidden;rotatable=0;points=[[0,0.5],[1,0.5]];portConstraint=eastwest;" parent="phABMBKXyKqPq_wbPe4x-44" vertex="1">
          <mxGeometry y="116" width="140" height="26" as="geometry" />
        </mxCell>
        <mxCell id="phABMBKXyKqPq_wbPe4x-51" value="" style="edgeStyle=segmentEdgeStyle;endArrow=classic;html=1;rounded=0;exitX=0.5;exitY=0;exitDx=0;exitDy=0;" parent="1" edge="1" target="phABMBKXyKqPq_wbPe4x-37">
          <mxGeometry width="50" height="50" relative="1" as="geometry">
            <mxPoint x="210" y="240" as="sourcePoint" />
            <mxPoint x="280" y="162" as="targetPoint" />
            <Array as="points">
              <mxPoint x="210" y="212" />
              <mxPoint x="280" y="212" />
            </Array>
          </mxGeometry>
        </mxCell>
        <mxCell id="phABMBKXyKqPq_wbPe4x-54" value="" style="edgeStyle=segmentEdgeStyle;endArrow=classic;html=1;rounded=0;exitX=0.5;exitY=0;exitDx=0;exitDy=0;" parent="1" edge="1" target="phABMBKXyKqPq_wbPe4x-37">
          <mxGeometry width="50" height="50" relative="1" as="geometry">
            <mxPoint x="430" y="240" as="sourcePoint" />
            <mxPoint x="360" y="162" as="targetPoint" />
            <Array as="points">
              <mxPoint x="430" y="212" />
              <mxPoint x="360" y="212" />
            </Array>
          </mxGeometry>
        </mxCell>
        <mxCell id="-Bdz_eQ71Ck8odImY1UB-2" value="People" style="swimlane;fontStyle=0;childLayout=stackLayout;horizontal=1;startSize=26;fillColor=none;horizontalStack=0;resizeParent=1;resizeParentMax=0;resizeLast=0;collapsible=1;marginBottom=0;" vertex="1" parent="1">
          <mxGeometry x="990" y="40" width="240" height="156" as="geometry" />
        </mxCell>
        <mxCell id="-Bdz_eQ71Ck8odImY1UB-3" value="+ Id: Guid" style="text;strokeColor=none;fillColor=none;align=left;verticalAlign=top;spacingLeft=4;spacingRight=4;overflow=hidden;rotatable=0;points=[[0,0.5],[1,0.5]];portConstraint=eastwest;" vertex="1" parent="-Bdz_eQ71Ck8odImY1UB-2">
          <mxGeometry y="26" width="240" height="26" as="geometry" />
        </mxCell>
        <mxCell id="-Bdz_eQ71Ck8odImY1UB-4" value="+ Name: string" style="text;strokeColor=none;fillColor=none;align=left;verticalAlign=top;spacingLeft=4;spacingRight=4;overflow=hidden;rotatable=0;points=[[0,0.5],[1,0.5]];portConstraint=eastwest;" vertex="1" parent="-Bdz_eQ71Ck8odImY1UB-2">
          <mxGeometry y="52" width="240" height="26" as="geometry" />
        </mxCell>
        <mxCell id="-Bdz_eQ71Ck8odImY1UB-5" value="+ DocumentList: List&lt;IDocument&gt;" style="text;strokeColor=none;fillColor=none;align=left;verticalAlign=top;spacingLeft=4;spacingRight=4;overflow=hidden;rotatable=0;points=[[0,0.5],[1,0.5]];portConstraint=eastwest;" vertex="1" parent="-Bdz_eQ71Ck8odImY1UB-2">
          <mxGeometry y="78" width="240" height="26" as="geometry" />
        </mxCell>
        <mxCell id="-Bdz_eQ71Ck8odImY1UB-37" value="+ ContactList: List&lt;IContact&gt;" style="text;strokeColor=none;fillColor=none;align=left;verticalAlign=top;spacingLeft=4;spacingRight=4;overflow=hidden;rotatable=0;points=[[0,0.5],[1,0.5]];portConstraint=eastwest;" vertex="1" parent="-Bdz_eQ71Ck8odImY1UB-2">
          <mxGeometry y="104" width="240" height="26" as="geometry" />
        </mxCell>
        <mxCell id="-Bdz_eQ71Ck8odImY1UB-6" value="+ AddressList: List&lt;Address&gt;" style="text;strokeColor=none;fillColor=none;align=left;verticalAlign=top;spacingLeft=4;spacingRight=4;overflow=hidden;rotatable=0;points=[[0,0.5],[1,0.5]];portConstraint=eastwest;" vertex="1" parent="-Bdz_eQ71Ck8odImY1UB-2">
          <mxGeometry y="130" width="240" height="26" as="geometry" />
        </mxCell>
        <mxCell id="-Bdz_eQ71Ck8odImY1UB-20" style="edgeStyle=orthogonalEdgeStyle;rounded=0;orthogonalLoop=1;jettySize=auto;html=1;exitX=0.5;exitY=0;exitDx=0;exitDy=0;shadow=0;" edge="1" parent="1" source="-Bdz_eQ71Ck8odImY1UB-15" target="phABMBKXyKqPq_wbPe4x-37">
          <mxGeometry relative="1" as="geometry">
            <mxPoint x="320" y="190" as="targetPoint" />
            <Array as="points">
              <mxPoint x="210" y="410" />
              <mxPoint x="300" y="410" />
            </Array>
          </mxGeometry>
        </mxCell>
        <mxCell id="-Bdz_eQ71Ck8odImY1UB-15" value="DonationProof" style="swimlane;fontStyle=0;childLayout=stackLayout;horizontal=1;startSize=30;fillColor=none;horizontalStack=0;resizeParent=1;resizeParentMax=0;resizeLast=0;collapsible=1;marginBottom=0;" vertex="1" parent="1">
          <mxGeometry x="140" y="440" width="140" height="116" as="geometry" />
        </mxCell>
        <mxCell id="-Bdz_eQ71Ck8odImY1UB-16" value="+ Data: string" style="text;strokeColor=none;fillColor=none;align=left;verticalAlign=top;spacingLeft=4;spacingRight=4;overflow=hidden;rotatable=0;points=[[0,0.5],[1,0.5]];portConstraint=eastwest;" vertex="1" parent="-Bdz_eQ71Ck8odImY1UB-15">
          <mxGeometry y="30" width="140" height="26" as="geometry" />
        </mxCell>
        <mxCell id="-Bdz_eQ71Ck8odImY1UB-17" value="+ Required: bool" style="text;strokeColor=none;fillColor=none;align=left;verticalAlign=top;spacingLeft=4;spacingRight=4;overflow=hidden;rotatable=0;points=[[0,0.5],[1,0.5]];portConstraint=eastwest;" vertex="1" parent="-Bdz_eQ71Ck8odImY1UB-15">
          <mxGeometry y="56" width="140" height="26" as="geometry" />
        </mxCell>
        <mxCell id="-Bdz_eQ71Ck8odImY1UB-18" value="" style="line;strokeWidth=1;fillColor=none;align=left;verticalAlign=middle;spacingTop=-1;spacingLeft=3;spacingRight=3;rotatable=0;labelPosition=right;points=[];portConstraint=eastwest;strokeColor=inherit;" vertex="1" parent="-Bdz_eQ71Ck8odImY1UB-15">
          <mxGeometry y="82" width="140" height="8" as="geometry" />
        </mxCell>
        <mxCell id="-Bdz_eQ71Ck8odImY1UB-19" value="Validate()" style="text;strokeColor=none;fillColor=none;align=left;verticalAlign=top;spacingLeft=4;spacingRight=4;overflow=hidden;rotatable=0;points=[[0,0.5],[1,0.5]];portConstraint=eastwest;" vertex="1" parent="-Bdz_eQ71Ck8odImY1UB-15">
          <mxGeometry y="90" width="140" height="26" as="geometry" />
        </mxCell>
        <mxCell id="-Bdz_eQ71Ck8odImY1UB-32" value="«interface»&#xa;IContact" style="swimlane;fontStyle=0;childLayout=stackLayout;horizontal=1;startSize=40;fillColor=none;horizontalStack=0;resizeParent=1;resizeParentMax=0;resizeLast=0;collapsible=1;marginBottom=0;" vertex="1" parent="1">
          <mxGeometry x="680" width="120" height="150" as="geometry" />
        </mxCell>
        <mxCell id="-Bdz_eQ71Ck8odImY1UB-33" value="+ Data: string" style="text;strokeColor=none;fillColor=none;align=left;verticalAlign=top;spacingLeft=4;spacingRight=4;overflow=hidden;rotatable=0;points=[[0,0.5],[1,0.5]];portConstraint=eastwest;" vertex="1" parent="-Bdz_eQ71Ck8odImY1UB-32">
          <mxGeometry y="40" width="120" height="26" as="geometry" />
        </mxCell>
        <mxCell id="-Bdz_eQ71Ck8odImY1UB-49" value="+ InsertDate: Date" style="text;strokeColor=none;fillColor=none;align=left;verticalAlign=top;spacingLeft=4;spacingRight=4;overflow=hidden;rotatable=0;points=[[0,0.5],[1,0.5]];portConstraint=eastwest;" vertex="1" parent="-Bdz_eQ71Ck8odImY1UB-32">
          <mxGeometry y="66" width="120" height="24" as="geometry" />
        </mxCell>
        <mxCell id="-Bdz_eQ71Ck8odImY1UB-35" value="" style="line;strokeWidth=1;fillColor=none;align=left;verticalAlign=middle;spacingTop=-1;spacingLeft=3;spacingRight=3;rotatable=0;labelPosition=right;points=[];portConstraint=eastwest;strokeColor=inherit;" vertex="1" parent="-Bdz_eQ71Ck8odImY1UB-32">
          <mxGeometry y="90" width="120" height="8" as="geometry" />
        </mxCell>
        <mxCell id="-Bdz_eQ71Ck8odImY1UB-36" value="Validate()" style="text;strokeColor=none;fillColor=none;align=left;verticalAlign=top;spacingLeft=4;spacingRight=4;overflow=hidden;rotatable=0;points=[[0,0.5],[1,0.5]];portConstraint=eastwest;" vertex="1" parent="-Bdz_eQ71Ck8odImY1UB-32">
          <mxGeometry y="98" width="120" height="26" as="geometry" />
        </mxCell>
        <mxCell id="-Bdz_eQ71Ck8odImY1UB-55" value="Update()" style="text;strokeColor=none;fillColor=none;align=left;verticalAlign=top;spacingLeft=4;spacingRight=4;overflow=hidden;rotatable=0;points=[[0,0.5],[1,0.5]];portConstraint=eastwest;" vertex="1" parent="-Bdz_eQ71Ck8odImY1UB-32">
          <mxGeometry y="124" width="120" height="26" as="geometry" />
        </mxCell>
        <mxCell id="-Bdz_eQ71Ck8odImY1UB-62" style="edgeStyle=orthogonalEdgeStyle;rounded=0;orthogonalLoop=1;jettySize=auto;html=1;exitX=0.5;exitY=0;exitDx=0;exitDy=0;entryX=0.333;entryY=1;entryDx=0;entryDy=0;entryPerimeter=0;shadow=0;" edge="1" parent="1" source="-Bdz_eQ71Ck8odImY1UB-39" target="-Bdz_eQ71Ck8odImY1UB-55">
          <mxGeometry relative="1" as="geometry">
            <Array as="points">
              <mxPoint x="660" y="180" />
              <mxPoint x="720" y="180" />
            </Array>
          </mxGeometry>
        </mxCell>
        <mxCell id="-Bdz_eQ71Ck8odImY1UB-39" value="Cellphone" style="swimlane;fontStyle=0;childLayout=stackLayout;horizontal=1;startSize=30;fillColor=none;horizontalStack=0;resizeParent=1;resizeParentMax=0;resizeLast=0;collapsible=1;marginBottom=0;" vertex="1" parent="1">
          <mxGeometry x="600" y="200" width="120" height="116" as="geometry" />
        </mxCell>
        <mxCell id="-Bdz_eQ71Ck8odImY1UB-40" value="+ Data: string" style="text;strokeColor=none;fillColor=none;align=left;verticalAlign=top;spacingLeft=4;spacingRight=4;overflow=hidden;rotatable=0;points=[[0,0.5],[1,0.5]];portConstraint=eastwest;" vertex="1" parent="-Bdz_eQ71Ck8odImY1UB-39">
          <mxGeometry y="30" width="120" height="26" as="geometry" />
        </mxCell>
        <mxCell id="-Bdz_eQ71Ck8odImY1UB-42" value="" style="line;strokeWidth=1;fillColor=none;align=left;verticalAlign=middle;spacingTop=-1;spacingLeft=3;spacingRight=3;rotatable=0;labelPosition=right;points=[];portConstraint=eastwest;strokeColor=inherit;" vertex="1" parent="-Bdz_eQ71Ck8odImY1UB-39">
          <mxGeometry y="56" width="120" height="8" as="geometry" />
        </mxCell>
        <mxCell id="-Bdz_eQ71Ck8odImY1UB-43" value="Validate()" style="text;strokeColor=none;fillColor=none;align=left;verticalAlign=top;spacingLeft=4;spacingRight=4;overflow=hidden;rotatable=0;points=[[0,0.5],[1,0.5]];portConstraint=eastwest;" vertex="1" parent="-Bdz_eQ71Ck8odImY1UB-39">
          <mxGeometry y="64" width="120" height="26" as="geometry" />
        </mxCell>
        <mxCell id="-Bdz_eQ71Ck8odImY1UB-56" value="Update()" style="text;strokeColor=none;fillColor=none;align=left;verticalAlign=top;spacingLeft=4;spacingRight=4;overflow=hidden;rotatable=0;points=[[0,0.5],[1,0.5]];portConstraint=eastwest;" vertex="1" parent="-Bdz_eQ71Ck8odImY1UB-39">
          <mxGeometry y="90" width="120" height="26" as="geometry" />
        </mxCell>
        <mxCell id="-Bdz_eQ71Ck8odImY1UB-44" value="Email" style="swimlane;fontStyle=0;childLayout=stackLayout;horizontal=1;startSize=30;fillColor=none;horizontalStack=0;resizeParent=1;resizeParentMax=0;resizeLast=0;collapsible=1;marginBottom=0;" vertex="1" parent="1">
          <mxGeometry x="760" y="200" width="120" height="142" as="geometry" />
        </mxCell>
        <mxCell id="-Bdz_eQ71Ck8odImY1UB-45" value="+ Data: string" style="text;strokeColor=none;fillColor=none;align=left;verticalAlign=top;spacingLeft=4;spacingRight=4;overflow=hidden;rotatable=0;points=[[0,0.5],[1,0.5]];portConstraint=eastwest;" vertex="1" parent="-Bdz_eQ71Ck8odImY1UB-44">
          <mxGeometry y="30" width="120" height="26" as="geometry" />
        </mxCell>
        <mxCell id="-Bdz_eQ71Ck8odImY1UB-47" value="" style="line;strokeWidth=1;fillColor=none;align=left;verticalAlign=middle;spacingTop=-1;spacingLeft=3;spacingRight=3;rotatable=0;labelPosition=right;points=[];portConstraint=eastwest;strokeColor=inherit;" vertex="1" parent="-Bdz_eQ71Ck8odImY1UB-44">
          <mxGeometry y="56" width="120" height="8" as="geometry" />
        </mxCell>
        <mxCell id="-Bdz_eQ71Ck8odImY1UB-48" value="Validate()" style="text;strokeColor=none;fillColor=none;align=left;verticalAlign=top;spacingLeft=4;spacingRight=4;overflow=hidden;rotatable=0;points=[[0,0.5],[1,0.5]];portConstraint=eastwest;" vertex="1" parent="-Bdz_eQ71Ck8odImY1UB-44">
          <mxGeometry y="64" width="120" height="26" as="geometry" />
        </mxCell>
        <mxCell id="-Bdz_eQ71Ck8odImY1UB-57" value="Update()" style="text;strokeColor=none;fillColor=none;align=left;verticalAlign=top;spacingLeft=4;spacingRight=4;overflow=hidden;rotatable=0;points=[[0,0.5],[1,0.5]];portConstraint=eastwest;" vertex="1" parent="-Bdz_eQ71Ck8odImY1UB-44">
          <mxGeometry y="90" width="120" height="26" as="geometry" />
        </mxCell>
        <mxCell id="-Bdz_eQ71Ck8odImY1UB-58" value="SendEmail()" style="text;strokeColor=none;fillColor=none;align=left;verticalAlign=top;spacingLeft=4;spacingRight=4;overflow=hidden;rotatable=0;points=[[0,0.5],[1,0.5]];portConstraint=eastwest;" vertex="1" parent="-Bdz_eQ71Ck8odImY1UB-44">
          <mxGeometry y="116" width="120" height="26" as="geometry" />
        </mxCell>
        <mxCell id="-Bdz_eQ71Ck8odImY1UB-84" style="edgeStyle=orthogonalEdgeStyle;rounded=0;orthogonalLoop=1;jettySize=auto;html=1;entryX=0.333;entryY=1;entryDx=0;entryDy=0;entryPerimeter=0;shadow=0;" edge="1" parent="1">
          <mxGeometry relative="1" as="geometry">
            <mxPoint x="820" y="200" as="sourcePoint" />
            <mxPoint x="759.96" y="150" as="targetPoint" />
            <Array as="points">
              <mxPoint x="820" y="180" />
              <mxPoint x="760" y="180" />
            </Array>
          </mxGeometry>
        </mxCell>
      </root>
    </mxGraphModel>
  </diagram>
</mxfile>
